<svg width="30" height="30" viewBox="0 0 30 30" fill="none" xmlns="http://www.w3.org/2000/svg">
<circle cx="15" cy="15" r="14" fill="white" stroke="black" stroke-width="2"/>
<path d="M14.9961 8.41016C14.8086 8.41016 14.6172 8.39453 14.4219 8.36328C14.2266 8.32422 14.0117 8.25781 13.7773 8.16406C13.5508 8.07031 13.3633 7.92187 13.2148 7.71875C13.0742 7.51563 13.0039 7.27344 13.0039 6.99219C13.0039 6.03125 13.6523 5.55078 14.9492 5.55078C15.3164 5.55078 15.625 5.59766 15.875 5.69141C16.1328 5.78516 16.3203 5.91016 16.4375 6.06641C16.5625 6.22266 16.6484 6.375 16.6953 6.52344C16.7422 6.67188 16.7656 6.83203 16.7656 7.00391C16.7656 7.35547 16.6562 7.64453 16.4375 7.87109C16.2188 8.09766 15.9844 8.24609 15.7344 8.31641C15.4922 8.37891 15.2461 8.41016 14.9961 8.41016ZM16.9297 11.5156V20.0586C16.9297 20.1758 16.9336 20.2695 16.9414 20.3398C16.957 20.4023 16.9844 20.4766 17.0234 20.5625C17.0703 20.6484 17.1484 20.7148 17.2578 20.7617C17.3672 20.8008 17.5078 20.8203 17.6797 20.8203C17.9766 20.8203 18.2305 20.8672 18.4414 20.9609C18.6523 21.0547 18.7578 21.1953 18.7578 21.3828C18.7578 22.2969 18.6289 22.8672 18.3711 23.0938C17.668 23.0312 16.8086 23 15.793 23C14.7383 23 13.7539 23.0312 12.8398 23.0938C12.582 22.8594 12.4531 22.2891 12.4531 21.3828C12.4531 21.1953 12.5586 21.0547 12.7695 20.9609C12.9805 20.8672 13.2344 20.8203 13.5312 20.8203C13.8359 20.8203 14.0352 20.7578 14.1289 20.6328C14.2227 20.5 14.2695 20.3164 14.2695 20.082V13.7891C14.2695 13.375 14.1484 13.082 13.9062 12.9102C13.6719 12.7383 13.2148 12.6367 12.5352 12.6055C12.4336 12.582 12.3672 12.5312 12.3359 12.4531C12.3125 12.375 12.3008 12.207 12.3008 11.9492C12.3008 11.5508 12.3438 11.1992 12.4297 10.8945C12.5156 10.5898 12.6016 10.4141 12.6875 10.3672C13.2891 10.4531 13.8711 10.4961 14.4336 10.4961C14.8086 10.4961 15.2031 10.4766 15.6172 10.4375C16.0312 10.3906 16.25 10.3672 16.2734 10.3672C16.5469 10.3672 16.7227 10.4375 16.8008 10.5781C16.8867 10.7109 16.9297 11.0234 16.9297 11.5156Z" fill="black"/>
</svg>
